<svg width="28" height="16" viewBox="0 0 28 16" fill="none" xmlns="http://www.w3.org/2000/svg">
<path d="M26.9602 1.0521C27.1518 0.445426 26.9582 0.00110554 26.0467 0.00266547L23.0272 0.00783302C22.2589 0.00914788 21.9085 0.394418 21.7165 0.817231C21.7165 0.817231 20.1882 4.36532 18.0172 6.66793C17.3163 7.33806 16.9959 7.54985 16.6131 7.55051C16.4217 7.55084 16.1432 7.34007 16.142 6.73373L16.131 1.07063C16.1296 0.343021 15.9072 0.0200179 15.267 0.0211136L10.5222 0.0292337C10.0431 0.0300537 9.75456 0.366971 9.75519 0.687745C9.75653 1.37624 10.8446 1.53346 10.9599 3.47356L10.9681 7.68274C10.9699 8.60464 10.7953 8.77315 10.4098 8.77381C9.38678 8.77556 6.89043 5.22132 5.40509 1.15027C5.11578 0.359262 4.82464 0.0402889 4.05357 0.0416085L1.03543 0.0467737C0.172114 0.0482511 0.000751563 0.433214 0.00157422 0.855697C0.00305195 1.6146 1.0334 5.36826 4.78546 10.3286C7.287 13.716 10.803 15.5485 14.0029 15.5431C15.9209 15.5398 16.157 15.1312 16.1556 14.4271L16.1506 11.8635C16.149 11.0472 16.3318 10.8826 16.939 10.8816C17.3851 10.8808 18.1539 11.0934 19.9484 12.7241C21.9982 14.6583 22.3386 15.5275 23.4883 15.5255L26.5065 15.5204C27.3684 15.5189 27.7986 15.11 27.5492 14.3046C27.2764 13.5031 26.2965 12.3377 24.9968 10.9591C24.2903 10.1727 23.2353 9.32691 22.9137 8.90367C22.4651 8.35808 22.5941 8.11663 22.9112 7.63101C22.9126 7.63231 26.5807 2.72052 26.9602 1.0521Z" fill="white"/>
</svg>
