<svg width="25" height="25" viewBox="0 0 25 25" fill="none" xmlns="http://www.w3.org/2000/svg">
<path fill-rule="evenodd" clip-rule="evenodd" d="M21.3574 3.63356C20.2043 2.47835 18.8323 1.56235 17.3209 0.938641C15.8095 0.314929 14.1888 -0.0040989 12.5527 3.97564e-05C5.69189 3.97564e-05 0.106766 5.55727 0.103993 12.3882C0.103993 14.5714 0.676648 16.7021 1.76511 18.5817L0 25L6.59871 23.2764C8.42399 24.2653 10.4689 24.7838 12.5471 24.7847H12.5527C19.4121 24.7847 24.9972 19.2275 25 12.3965C25.0047 10.7688 24.6852 9.15629 24.06 7.65219C23.4347 6.14809 22.5162 4.78223 21.3574 3.63356V3.63356ZM12.5527 22.694H12.5485C10.6954 22.6942 8.87635 22.198 7.28229 21.2575L6.90514 21.0339L2.98946 22.0565L4.03355 18.2574L3.78812 17.8682C2.75206 16.2266 2.20359 14.3268 2.20604 12.3882C2.20881 6.71095 6.84968 2.09211 12.5568 2.09211C13.916 2.0891 15.2623 2.35442 16.5178 2.8727C17.7733 3.39099 18.913 4.15195 19.871 5.11154C20.8341 6.06655 21.5976 7.20208 22.1171 8.4525C22.6366 9.70291 22.902 11.0434 22.8979 12.3965C22.8951 18.0738 18.2543 22.694 12.5527 22.694ZM18.2279 14.9812C17.9159 14.8253 16.3879 14.0774 16.1023 13.9739C15.818 13.8704 15.6114 13.8193 15.4035 14.1284C15.1955 14.4375 14.5992 15.1344 14.4176 15.3414C14.236 15.5484 14.0543 15.5733 13.7437 15.4187C13.4331 15.2641 12.4306 14.9371 11.2424 13.8828C10.3175 13.0617 9.69355 12.0488 9.5119 11.7383C9.33026 11.4278 9.49249 11.2608 9.64918 11.1062C9.78922 10.9682 9.95977 10.7447 10.1151 10.5639C10.2704 10.3831 10.3217 10.2548 10.4257 10.0478C10.5297 9.84077 10.4783 9.65999 10.3993 9.50543C10.3217 9.34949 9.69909 7.82598 9.4398 7.20637C9.18883 6.60607 8.93232 6.68611 8.74097 6.67783C8.5428 6.66976 8.34447 6.66608 8.14613 6.66679C7.98841 6.67079 7.83323 6.70717 7.69031 6.77367C7.54738 6.84016 7.41981 6.93532 7.31557 7.05319C7.02994 7.36368 6.22711 8.11164 6.22711 9.63515C6.22711 11.1587 7.34191 12.6311 7.49721 12.8381C7.65251 13.0451 9.69077 16.1708 12.8106 17.5122C13.5538 17.8309 14.1334 18.0214 14.584 18.1649C15.3286 18.4009 16.0066 18.3664 16.5432 18.2877C17.1408 18.1994 18.3832 17.5398 18.6425 16.8166C18.9018 16.0935 18.9018 15.4739 18.8241 15.3442C18.7465 15.2145 18.5371 15.1358 18.2279 14.9812" fill="white"/>
</svg>
