<svg width="1417" height="672" viewBox="0 0 1417 672" fill="none" xmlns="http://www.w3.org/2000/svg">
<g style="mix-blend-mode:screen">
<circle cx="238.5" cy="340.5" r="202" fill="black"/>
<circle cx="238.5" cy="340.5" r="202" stroke="#6200EB" stroke-width="3"/>
</g>
<path opacity="0.1" d="M175.572 247.75C140.072 247.75 110.322 269.75 110.322 308C110.322 327.5 110.322 349.75 110.322 369.25C110.322 407.5 140.072 429.5 175.572 429.5C211.822 429.5 241.322 407.5 241.322 369.25C241.322 349.75 241.322 327.5 241.322 308C241.322 269.75 211.822 247.75 175.572 247.75ZM175.572 389.75C162.822 389.75 152.822 382.5 152.822 368.25C152.822 349.5 152.822 327.75 152.822 308.75C152.822 295 162.822 287.75 175.572 287.75C188.822 287.75 199.072 295 199.072 308.75C199.072 327.75 199.072 349.5 199.072 368.25C199.072 382.5 188.822 389.75 175.572 389.75ZM292.494 287.25V389.5H266.494V426H362.494V389.5H335.994V251H268.744V287.25H292.494Z" fill="#A266FF"/>
<path d="M167.731 329V293.192H138.163V329H143.347V298.472H162.499V329H167.731ZM200.56 316.376C200.56 321.752 195.808 324.728 191.104 324.728C186.352 324.728 181.552 322.184 181.552 316.568C181.552 310.952 186.256 308.408 191.056 308.408C195.76 308.408 200.56 310.808 200.56 316.376ZM205.744 316.328C205.744 307.688 198.544 303.32 191.056 303.32C183.616 303.32 176.368 308.024 176.368 316.472C176.368 324.872 183.472 329.768 191.008 329.768C198.544 329.768 205.744 324.776 205.744 316.328ZM218.808 309.08C218.376 313.832 218.04 317.288 215.544 321.272C214.152 323.48 212.904 324.008 211.896 324.008H210.6V329H213.144C214.392 329 216.696 328.808 218.376 326.84C222.072 322.472 223.464 315.08 224.04 309.08H231V329H236.232V304.136H212.664L214.776 309.08H218.808ZM252.242 319.112C253.25 318.68 254.258 318.536 255.362 318.536C257.81 318.536 260.258 319.208 262.85 319.208C263.858 319.208 264.818 319.064 265.778 318.584V329H270.674V304.136H265.778V313.544C264.77 314.024 263.714 314.168 262.658 314.168C260.162 314.168 257.234 313.448 255.17 313.448C254.162 313.448 253.154 313.64 252.242 314.072V304.136H247.346V329H252.242V319.112ZM296.478 320.744C291.342 320.744 287.982 322.088 286.398 322.904L292.302 311.528L297.15 320.744H296.478ZM289.758 306.68L277.854 329H283.038L283.182 328.712C283.998 327.656 290.382 325.256 296.526 325.256H299.502L301.47 329H306.894L293.454 303.56H288.126L289.758 306.68ZM332.302 316.424C330.142 315.176 327.406 314.984 323.902 314.984C321.79 314.984 319.342 314.744 319.342 312.056C319.342 309.32 321.79 309.08 323.902 309.08L332.302 309.128V316.424ZM325.534 320.12C329.038 320.264 330.19 320.6 332.302 321.704V329H337.342V304.136H322.126C317.134 304.136 313.582 307.496 313.582 312.2C313.582 316.136 315.742 318.968 319.918 319.88L318.91 321.464C317.566 323.624 316.558 323.96 315.646 323.96H313.102V329H315.262C318.334 329 320.59 328.76 322.702 325.064L325.534 320.12ZM167.443 374.376C167.443 379.752 162.691 382.728 157.987 382.728C153.235 382.728 148.435 380.184 148.435 374.568C148.435 368.952 153.139 366.408 157.939 366.408C162.643 366.408 167.443 368.808 167.443 374.376ZM172.627 374.328C172.627 365.688 165.427 361.32 157.939 361.32C150.499 361.32 143.251 366.024 143.251 374.472C143.251 382.872 150.355 387.768 157.891 387.768C165.427 387.768 172.627 382.776 172.627 374.328ZM205.072 387V362.136H181.744V387H186.64V367.08H200.176V387H205.072ZM220.941 367.08C220.509 371.832 220.173 375.288 217.677 379.272C216.285 381.48 215.037 382.008 214.029 382.008H212.733V387H215.277C216.525 387 218.829 386.808 220.509 384.84C224.205 380.472 225.597 373.08 226.173 367.08H233.133V387H238.365V362.136H214.797L216.909 367.08H220.941ZM264.205 378.744C259.069 378.744 255.709 380.088 254.125 380.904L260.029 369.528L264.877 378.744H264.205ZM257.485 364.68L245.581 387H250.765L250.909 386.712C251.725 385.656 258.109 383.256 264.253 383.256H267.229L269.197 387H274.621L261.181 361.56H255.853L257.485 364.68ZM301.779 367.08V362.136H278.451V367.08H287.475V387H292.419V367.08H301.779ZM323.783 378.744C318.647 378.744 315.287 380.088 313.703 380.904L319.607 369.528L324.455 378.744H323.783ZM317.063 364.68L305.159 387H310.343L310.487 386.712C311.303 385.656 317.687 383.256 323.831 383.256H326.807L328.775 387H334.199L320.759 361.56H315.431L317.063 364.68Z" fill="white"/>
<path d="M237.5 102C190.166 102 143.912 116.144 104.673 142.616C65.4336 169.089 34.9998 206.683 17.2767 250.573C-0.446472 294.464 -4.65044 342.65 5.20425 388.946C15.0589 435.243 38.5227 477.539 72.5846 510.407C106.646 543.275 149.753 565.215 196.371 573.412C242.99 581.609 290.995 575.689 334.226 556.411C377.456 537.134 413.94 505.378 438.996 465.22C464.052 425.061 476.537 378.332 474.849 331.028L466.324 331.332C467.952 376.937 455.916 421.988 431.76 460.705C407.603 499.421 372.43 530.036 330.752 548.621C289.074 567.206 242.793 572.913 197.849 565.011C152.904 557.108 111.346 535.956 78.5076 504.269C45.669 472.581 23.048 431.804 13.5472 387.17C4.04646 342.536 8.09944 296.082 25.1861 253.767C42.2727 211.453 71.6134 175.209 109.443 149.688C147.273 124.166 191.866 110.53 237.5 110.53V102Z" fill="url(#paint0_linear)"/>
<path d="M924.032 325.081C923.606 368.303 934.973 410.823 956.911 448.065C978.848 485.308 1010.53 515.865 1048.53 536.447C1086.54 557.029 1129.44 566.858 1172.62 564.876C1215.8 562.894 1257.62 549.176 1293.58 525.198C1329.55 501.22 1358.29 467.89 1376.72 428.794C1395.16 389.698 1402.58 346.316 1398.2 303.315C1393.81 260.315 1377.79 219.323 1351.84 184.752C1325.9 150.18 1291.02 123.337 1250.96 107.11L1247.75 115.023C1286.38 130.666 1320 156.546 1345.02 189.876C1370.03 223.206 1385.48 262.725 1389.7 304.181C1393.93 345.638 1386.77 387.462 1369 425.154C1351.23 462.846 1323.52 494.978 1288.85 518.095C1254.18 541.212 1213.86 554.437 1172.23 556.348C1130.6 558.259 1089.24 548.783 1052.6 528.94C1015.96 509.097 985.416 479.638 964.267 443.733C943.117 407.827 932.158 366.835 932.569 325.166L924.032 325.081Z" fill="url(#paint1_linear)"/>
<path d="M932.765 327.542C934.923 288.405 926.847 249.403 909.253 213.992L901.067 217.656C918.029 251.794 925.815 289.395 923.734 327.127L932.765 327.542Z" fill="#6C0FEE"/>
<path d="M877.455 173.186C844.946 138.606 802.828 114.549 756.527 104.115C710.226 93.68 661.862 97.3453 617.662 114.638C573.462 131.931 535.451 162.06 508.524 201.145C481.598 240.23 466.988 286.48 466.577 333.941L475.114 334.015C475.51 288.259 489.595 243.669 515.555 205.988C541.514 168.307 578.16 139.26 620.772 122.589C663.385 105.917 710.012 102.383 754.65 112.443C799.289 122.503 839.893 145.695 871.235 179.034L877.455 173.186Z" fill="url(#paint2_linear)"/>
<g style="mix-blend-mode:screen">
<circle cx="704.5" cy="336.5" r="202" fill="black"/>
<circle cx="704.5" cy="336.5" r="202" stroke="url(#paint3_linear)" stroke-width="3"/>
</g>
<path opacity="0.1" d="M624.558 238.75C589.058 238.75 559.308 260.75 559.308 299C559.308 318.5 559.308 340.75 559.308 360.25C559.308 398.5 589.058 420.5 624.558 420.5C660.808 420.5 690.308 398.5 690.308 360.25C690.308 340.75 690.308 318.5 690.308 299C690.308 260.75 660.808 238.75 624.558 238.75ZM624.558 380.75C611.808 380.75 601.808 373.5 601.808 359.25C601.808 340.5 601.808 318.75 601.808 299.75C601.808 286 611.808 278.75 624.558 278.75C637.808 278.75 648.058 286 648.058 299.75C648.058 318.75 648.058 340.5 648.058 359.25C648.058 373.5 637.808 380.75 624.558 380.75ZM781.979 314L716.229 410.25V417H839.229C839.229 401.75 839.229 392.25 839.229 377H787.229L822.479 328C848.479 287.75 826.479 238 776.229 239.25C745.229 240 719.729 258.5 720.229 296.25C734.729 296.25 743.479 296.25 758.229 296.25C758.229 284 765.479 279.25 775.479 279.25C797.479 279.25 790.729 302.25 781.979 314Z" fill="#A266FF"/>
<path d="M562.138 287.192V303.944C558.634 305.192 555.994 306.104 553.21 306.104C547.594 306.104 544.234 304.472 544.234 299.336C544.234 295.352 544.57 291.176 545.194 287.192H539.962C539.338 290.312 539.002 296.12 539.002 297.896C539.002 307.88 543.85 311.24 553.018 311.24C557.194 311.24 559.738 310.376 562.138 309.224V323H567.37V287.192H562.138ZM593.65 314.744C588.514 314.744 585.154 316.088 583.57 316.904L589.474 305.528L594.322 314.744H593.65ZM586.93 300.68L575.026 323H580.21L580.354 322.712C581.17 321.656 587.554 319.256 593.698 319.256H596.674L598.642 323H604.066L590.626 297.56H585.298L586.93 300.68ZM631.321 316.088C629.401 317.816 626.665 318.776 624.073 318.776C619.321 318.776 614.569 316.184 614.569 310.568C614.569 304.952 619.225 302.312 624.025 302.312C626.377 302.312 628.489 302.792 630.361 304.088L633.673 300.248C630.937 298.184 627.673 297.32 624.025 297.32C616.585 297.32 609.337 302.024 609.337 310.472C609.337 318.872 616.441 323.768 623.977 323.768C627.769 323.768 631.465 322.568 634.201 320.216L631.321 316.088ZM662.35 303.08V298.136H639.022V303.08H648.046V323H652.99V303.08H662.35ZM674.945 315.992V298.136H670.049V323H674.945L689.441 305.048V323H694.337V298.136H689.441L674.945 315.992ZM720.454 298.136V308.888C717.622 309.752 716.47 310.04 714.214 310.04C709.702 310.04 707.878 308.936 707.878 305.336C707.878 302.936 708.118 300.632 708.838 298.136H703.942C703.174 300.872 702.982 303.752 702.982 306.632C702.982 312.824 707.254 314.936 714.07 314.936C716.662 314.936 718.486 314.648 720.454 313.88V323H725.35V298.136H720.454ZM741.789 313.112C742.797 312.68 743.805 312.536 744.909 312.536C747.357 312.536 749.805 313.208 752.397 313.208C753.405 313.208 754.365 313.064 755.325 312.584V323H760.221V298.136H755.325V307.544C754.317 308.024 753.261 308.168 752.205 308.168C749.709 308.168 746.781 307.448 744.717 307.448C743.709 307.448 742.701 307.64 741.789 308.072V298.136H736.893V323H741.789V313.112ZM786.025 314.744C780.889 314.744 777.529 316.088 775.945 316.904L781.849 305.528L786.697 314.744H786.025ZM779.305 300.68L767.401 323H772.585L772.729 322.712C773.545 321.656 779.929 319.256 786.073 319.256H789.049L791.017 323H796.441L783.001 297.56H777.673L779.305 300.68ZM821.849 310.424C819.689 309.176 816.953 308.984 813.449 308.984C811.337 308.984 808.889 308.744 808.889 306.056C808.889 303.32 811.337 303.08 813.449 303.08L821.849 303.128V310.424ZM815.081 314.12C818.585 314.264 819.737 314.6 821.849 315.704V323H826.889V298.136H811.673C806.681 298.136 803.129 301.496 803.129 306.2C803.129 310.136 805.289 312.968 809.465 313.88L808.457 315.464C807.113 317.624 806.105 317.96 805.193 317.96H802.649V323H804.809C807.881 323 810.137 322.76 812.249 319.064L815.081 314.12ZM856.399 303.08H866.719C868.207 303.08 869.215 303.8 869.215 305.144C869.215 306.584 868.447 307.304 866.719 307.304H864.175C861.295 307.304 858.559 307.496 856.399 308.744V303.08ZM856.399 313.784C858.559 312.632 859.615 312.344 864.175 312.344H866.719C869.455 312.344 870.607 313.304 870.607 315.128C870.607 317.528 868.735 318.008 866.719 318.008H856.399V313.784ZM875.551 315.224C875.551 312.776 874.495 310.52 872.623 309.416C873.823 308.312 874.255 306.776 874.255 305.144C874.255 300.968 870.799 298.136 866.719 298.136H851.455V323H866.719C872.191 323 875.551 320.12 875.551 315.224ZM567.394 353.736C569.842 351.192 573.778 349.416 576.85 349.416C583.57 349.416 583.762 354.216 583.762 355.224C583.762 356.376 583.474 359.784 577.09 363.528C569.65 367.944 565.81 369.528 563.41 375.768V381H589.282V375.768H569.122C571.09 372.456 573.922 371.352 579.778 367.944C588.514 362.808 588.946 357.096 588.946 355.224C588.946 353.256 588.562 344.136 576.85 344.136C572.29 344.136 567.154 346.872 564.034 349.8L567.394 353.736ZM618.813 365.592V361.128H596.013V365.592H618.813ZM647.408 369.672C647.408 373.56 643.616 376.584 638.96 376.584C634.544 376.584 630.8 373.656 630.8 369.672C630.8 365.448 633.632 362.136 638.96 362.136C644.48 362.136 647.408 365.304 647.408 369.672ZM650.672 346.872C647.744 345.144 644.336 344.136 640.688 344.136C629.504 344.136 625.04 353.4 625.04 364.152C625.04 367.464 625.04 371.64 626.72 374.664C628.928 378.648 633.248 381.816 638.96 381.816C646.496 381.816 652.64 376.44 652.64 369.672C652.64 362.184 647.12 357 638.96 357C635.312 357 632.48 358.584 630.368 360.648C630.992 353.64 634.928 349.416 640.688 349.416C643.28 349.416 645.92 350.232 648.032 351.432L650.672 346.872ZM689.375 356.136V366.888C686.543 367.752 685.391 368.04 683.135 368.04C678.623 368.04 676.799 366.936 676.799 363.336C676.799 360.936 677.039 358.632 677.759 356.136H672.863C672.095 358.872 671.903 361.752 671.903 364.632C671.903 370.824 676.175 372.936 682.991 372.936C685.583 372.936 687.407 372.648 689.375 371.88V381H694.271V356.136H689.375ZM720.119 372.744C714.983 372.744 711.623 374.088 710.039 374.904L715.943 363.528L720.791 372.744H720.119ZM713.399 358.68L701.495 381H706.679L706.823 380.712C707.639 379.656 714.023 377.256 720.167 377.256H723.143L725.111 381H730.535L717.095 355.56H711.767L713.399 358.68ZM757.789 374.088C755.869 375.816 753.133 376.776 750.541 376.776C745.789 376.776 741.037 374.184 741.037 368.568C741.037 362.952 745.693 360.312 750.493 360.312C752.845 360.312 754.957 360.792 756.829 362.088L760.141 358.248C757.405 356.184 754.141 355.32 750.493 355.32C743.053 355.32 735.805 360.024 735.805 368.472C735.805 376.872 742.909 381.768 750.445 381.768C754.237 381.768 757.933 380.568 760.669 378.216L757.789 374.088ZM788.818 361.08V356.136H765.49V361.08H774.514V381H779.458V361.08H788.818ZM801.414 372.072C803.574 370.92 804.63 370.632 809.19 370.632H812.838V365.688H809.19C806.31 365.688 803.574 365.88 801.414 367.128V361.08H816.102V356.136H796.518V381H817.014V376.008H801.414V372.072ZM845.769 356.136H850.665V381H845.769V363.048L831.273 381H826.377V356.136H831.273V373.992L845.769 356.136ZM839.001 350.232C835.881 350.232 835.305 348.168 835.305 346.632H829.785C830.121 349.608 832.137 353.592 839.001 353.592C845.865 353.592 847.881 349.608 848.217 346.632H842.697C842.697 348.168 842.121 350.232 839.001 350.232Z" fill="white"/>
<g style="mix-blend-mode:screen">
<circle cx="1162.5" cy="328.5" r="202" fill="black"/>
<circle cx="1162.5" cy="328.5" r="202" stroke="url(#paint4_linear)" stroke-width="3"/>
</g>
<path opacity="0.1" d="M1087.75 238.75C1052.25 238.75 1022.5 260.75 1022.5 299C1022.5 318.5 1022.5 340.75 1022.5 360.25C1022.5 398.5 1052.25 420.5 1087.75 420.5C1124 420.5 1153.5 398.5 1153.5 360.25C1153.5 340.75 1153.5 318.5 1153.5 299C1153.5 260.75 1124 238.75 1087.75 238.75ZM1087.75 380.75C1075 380.75 1065 373.5 1065 359.25C1065 340.5 1065 318.75 1065 299.75C1065 286 1075 278.75 1087.75 278.75C1101 278.75 1111.25 286 1111.25 299.75C1111.25 318.75 1111.25 340.5 1111.25 359.25C1111.25 373.5 1101 380.75 1087.75 380.75ZM1183.42 363.5C1183.42 386 1195.67 403.75 1212.17 413C1220.67 417.75 1230.17 420.5 1243.42 420.5C1283.92 420.5 1305.17 389.25 1304.92 359.5C1304.92 337 1296.92 314.5 1269.17 307.5L1301.42 248.5V242H1190.17V281.75H1240.67L1217.42 330.25V336.25C1236.42 335.5 1261.42 334.5 1261.67 359.75C1261.42 371.5 1254.67 380.75 1242.42 380.75C1230.42 380.75 1222.92 375 1222.67 363.5C1209.92 363.5 1196.42 363.5 1183.42 363.5Z" fill="#A266FF"/>
<path d="M1040.4 299.504C1038.05 299.504 1035.74 299.696 1033.58 300.944V289.472H1046.73C1050.19 289.472 1052.01 290.816 1052.01 294.416C1052.01 297.872 1050.14 299.504 1046.73 299.504H1040.4ZM1033.58 320V306.224C1035.74 305.072 1038.09 304.784 1040.4 304.784H1046.73C1053.07 304.784 1057.2 300.752 1057.2 294.416C1057.2 288.032 1053.07 284.192 1046.73 284.192H1028.35V320H1033.58ZM1075.38 311.744C1070.25 311.744 1066.89 313.088 1065.3 313.904L1071.21 302.528L1076.06 311.744H1075.38ZM1068.66 297.68L1056.76 320H1061.94L1062.09 319.712C1062.9 318.656 1069.29 316.256 1075.43 316.256H1078.41L1080.38 320H1085.8L1072.36 294.56H1067.03L1068.66 297.68ZM1113.05 313.088C1111.13 314.816 1108.4 315.776 1105.81 315.776C1101.05 315.776 1096.3 313.184 1096.3 307.568C1096.3 301.952 1100.96 299.312 1105.76 299.312C1108.11 299.312 1110.22 299.792 1112.09 301.088L1115.41 297.248C1112.67 295.184 1109.41 294.32 1105.76 294.32C1098.32 294.32 1091.07 299.024 1091.07 307.472C1091.07 315.872 1098.17 320.768 1105.71 320.768C1109.5 320.768 1113.2 319.568 1115.93 317.216L1113.05 313.088ZM1144.18 313.088C1142.26 314.816 1139.52 315.776 1136.93 315.776C1132.18 315.776 1127.43 313.184 1127.43 307.568C1127.43 301.952 1132.08 299.312 1136.88 299.312C1139.24 299.312 1141.35 299.792 1143.22 301.088L1146.53 297.248C1143.8 295.184 1140.53 294.32 1136.88 294.32C1129.44 294.32 1122.2 299.024 1122.2 307.472C1122.2 315.872 1129.3 320.768 1136.84 320.768C1140.63 320.768 1144.32 319.568 1147.06 317.216L1144.18 313.088ZM1160.62 300.08H1170.65C1172.66 300.08 1174.58 300.56 1174.58 302.96C1174.58 305.6 1173 306.08 1170.65 306.08H1168.44C1165.56 306.08 1162.78 306.272 1160.62 307.52V300.08ZM1160.62 320V312.464C1162.78 311.312 1163.88 311.024 1168.44 311.024H1170.65C1176.22 311.024 1179.62 307.904 1179.62 303.008C1179.62 298.208 1176.31 295.136 1171.51 295.136H1155.72V320H1160.62ZM1210.04 307.376C1210.04 312.752 1205.29 315.728 1200.59 315.728C1195.84 315.728 1191.04 313.184 1191.04 307.568C1191.04 301.952 1195.74 299.408 1200.54 299.408C1205.24 299.408 1210.04 301.808 1210.04 307.376ZM1215.23 307.328C1215.23 298.688 1208.03 294.32 1200.54 294.32C1193.1 294.32 1185.85 299.024 1185.85 307.472C1185.85 315.872 1192.96 320.768 1200.49 320.768C1208.03 320.768 1215.23 315.776 1215.23 307.328ZM1238.94 295.136V305.888C1236.11 306.752 1234.95 307.04 1232.7 307.04C1228.19 307.04 1226.36 305.936 1226.36 302.336C1226.36 299.936 1226.6 297.632 1227.32 295.136H1222.43C1221.66 297.872 1221.47 300.752 1221.47 303.632C1221.47 309.824 1225.74 311.936 1232.55 311.936C1235.15 311.936 1236.97 311.648 1238.94 310.88V320H1243.83V295.136H1238.94ZM1260.61 310.448H1262.72C1264.07 310.448 1265.46 310.304 1266.75 309.824L1271.12 316.064C1273.76 319.856 1275.97 320 1278.56 320H1280.72V315.008H1278.99C1277.75 315.008 1275.92 314.528 1274.43 312.464L1270.26 306.8L1279.38 295.136H1273.04L1266.03 304.208C1265.07 304.976 1263.97 305.216 1262.24 305.216H1260.61V295.136H1255.38V320H1260.61V310.448ZM1304.6 311.744C1299.47 311.744 1296.11 313.088 1294.52 313.904L1300.43 302.528L1305.28 311.744H1304.6ZM1297.88 297.68L1285.98 320H1291.16L1291.31 319.712C1292.12 318.656 1298.51 316.256 1304.65 316.256H1307.63L1309.6 320H1315.02L1301.58 294.56H1296.25L1297.88 297.68ZM1103.45 373.008V365.904C1105.61 367.152 1108.35 367.344 1111.23 367.344H1113.77C1115.74 367.344 1117.66 367.776 1117.66 370.128C1117.66 372.528 1115.79 373.008 1113.77 373.008H1103.45ZM1103.45 358.08H1117.66V353.136H1098.51V378H1113.77C1118.72 378 1122.61 375.456 1122.61 370.224C1122.61 365.04 1118.72 362.304 1113.77 362.304H1111.23C1106.67 362.304 1105.61 362.016 1103.45 360.864V358.08ZM1136.12 369.072C1138.28 367.92 1139.34 367.632 1143.9 367.632H1147.55V362.688H1143.9C1141.02 362.688 1138.28 362.88 1136.12 364.128V358.08H1150.81V353.136H1131.23V378H1151.72V373.008H1136.12V369.072ZM1163.1 359.088C1165.41 357.792 1168.43 357.312 1169.73 357.312C1173.09 357.312 1175.1 358.08 1175.1 359.952C1175.1 361.104 1174.34 362.304 1172.61 362.304H1167.38V367.248H1172.61C1174.58 367.248 1176.5 367.776 1176.5 370.128C1176.5 373.008 1173.57 373.776 1169.73 373.776C1166.75 373.776 1163.39 372.864 1160.56 370.08L1157.73 374.352C1160.46 377.088 1165.46 378.816 1169.73 378.816C1175.44 378.816 1181.44 376.704 1181.44 370.224C1181.44 367.968 1180.48 365.52 1178.51 364.416C1179.71 363.312 1180.19 361.392 1180.19 359.952C1180.19 354.912 1176.4 352.32 1169.73 352.32C1167.47 352.32 1163.63 352.8 1160.32 354.816L1163.1 359.088ZM1240.56 370.368C1240.56 373.824 1237.44 375.84 1234.32 375.84C1231.2 375.84 1228.04 374.16 1228.04 370.464C1228.04 366.768 1231.16 365.04 1234.32 365.04C1237.4 365.04 1240.56 366.624 1240.56 370.368ZM1244.84 370.32C1244.84 364.032 1239.65 360.912 1234.32 360.912C1228.95 360.912 1223.76 364.32 1223.76 370.416C1223.76 376.416 1228.8 379.92 1234.23 379.92C1239.65 379.92 1244.84 376.368 1244.84 370.32ZM1217.04 353.328C1217.04 356.784 1213.92 358.8 1210.8 358.8C1207.68 358.8 1204.52 357.12 1204.52 353.424C1204.52 349.728 1207.64 348 1210.8 348C1213.88 348 1217.04 349.584 1217.04 353.328ZM1221.32 353.28C1221.32 346.992 1216.13 343.872 1210.8 343.872C1205.43 343.872 1200.24 347.28 1200.24 353.376C1200.24 359.376 1205.28 362.928 1210.71 362.928C1216.13 362.928 1221.32 359.328 1221.32 353.28ZM1238.45 343.536H1232.84L1206.87 379.872H1212.44L1238.45 343.536Z" fill="white"/>
<path d="M878.768 180.492C880.4 180.204 881.489 178.648 881.202 177.017L876.513 150.427C876.226 148.795 874.67 147.706 873.038 147.993C871.406 148.281 870.317 149.837 870.604 151.469L874.772 175.104L851.137 179.272C849.505 179.559 848.415 181.115 848.703 182.747C848.991 184.379 850.547 185.468 852.179 185.181L878.768 180.492ZM875.43 179.227L876.527 179.995L879.968 175.08L878.871 174.312L875.43 179.227Z" fill="#6600E7"/>
<path d="M1243.21 110.1C1242.6 108.558 1243.36 106.816 1244.9 106.209L1270.02 96.3134C1271.56 95.7062 1273.31 96.4636 1273.91 98.0052C1274.52 99.5467 1273.76 101.289 1272.22 101.896L1249.89 110.692L1258.69 133.022C1259.29 134.564 1258.54 136.305 1256.99 136.913C1255.45 137.52 1253.71 136.763 1253.1 135.221L1243.21 110.1ZM1246.03 112.285L1244.8 111.751L1247.2 106.249L1248.42 106.783L1246.03 112.285Z" fill="#FF166A"/>
<circle cx="238" cy="106" r="15" fill="#6E01E0"/>
<circle cx="905" cy="216" r="15" fill="#6C0FEE"/>
<defs>
<linearGradient id="paint0_linear" x1="467.5" y1="333.5" x2="153.5" y2="148.5" gradientUnits="userSpaceOnUse">
<stop stop-color="#FF166A"/>
<stop offset="1" stop-color="#6300EA"/>
</linearGradient>
<linearGradient id="paint1_linear" x1="950.354" y1="429.562" x2="1145.46" y2="96.9914" gradientUnits="userSpaceOnUse">
<stop offset="0.276042" stop-color="#6C0FEE"/>
<stop offset="1" stop-color="#FF166A"/>
</linearGradient>
<linearGradient id="paint2_linear" x1="472.054" y1="330.773" x2="879.829" y2="182.126" gradientUnits="userSpaceOnUse">
<stop stop-color="#FF166A"/>
<stop offset="1" stop-color="#6200EB"/>
</linearGradient>
<linearGradient id="paint3_linear" x1="908" y1="313" x2="511" y2="326" gradientUnits="userSpaceOnUse">
<stop stop-color="#6200EB"/>
<stop offset="1" stop-color="#FF166A"/>
</linearGradient>
<linearGradient id="paint4_linear" x1="978" y1="300.5" x2="1373" y2="316.5" gradientUnits="userSpaceOnUse">
<stop stop-color="#6200EB"/>
<stop offset="0.939569" stop-color="#FF166A"/>
</linearGradient>
</defs>
</svg>
