<svg width="811" height="1710" viewBox="0 0 811 1710" fill="none" xmlns="http://www.w3.org/2000/svg">
<g style="mix-blend-mode:screen">
<circle cx="400.07" cy="287.833" r="244.093" transform="rotate(90 400.07 287.833)" fill="black"/>
<circle cx="400.07" cy="287.833" r="244.093" transform="rotate(90 400.07 287.833)" stroke="#6200EB" stroke-width="3"/>
</g>
<path opacity="0.1" d="M336.056 174.656C295.16 174.656 260.888 200 260.888 244.064C260.888 266.528 260.888 292.16 260.888 314.624C260.888 358.688 295.16 384.032 336.056 384.032C377.816 384.032 411.8 358.688 411.8 314.624C411.8 292.16 411.8 266.528 411.8 244.064C411.8 200 377.816 174.656 336.056 174.656ZM336.056 338.24C321.368 338.24 309.848 329.888 309.848 313.472C309.848 291.872 309.848 266.816 309.848 244.928C309.848 229.088 321.368 220.736 336.056 220.736C351.32 220.736 363.128 229.088 363.128 244.928C363.128 266.816 363.128 291.872 363.128 313.472C363.128 329.888 351.32 338.24 336.056 338.24ZM470.75 220.16V337.952H440.798V380H551.39V337.952H520.862V178.4H443.39V220.16H470.75Z" fill="#A266FF"/>
<path d="M311.818 269V221.256H272.394V269H279.306V228.296H304.842V269H311.818ZM355.59 252.168C355.59 259.336 349.254 263.304 342.982 263.304C336.646 263.304 330.246 259.912 330.246 252.424C330.246 244.936 336.518 241.544 342.918 241.544C349.19 241.544 355.59 244.744 355.59 252.168ZM362.502 252.104C362.502 240.584 352.902 234.76 342.918 234.76C332.998 234.76 323.334 241.032 323.334 252.296C323.334 263.496 332.806 270.024 342.854 270.024C352.902 270.024 362.502 263.368 362.502 252.104ZM379.921 242.44C379.345 248.776 378.897 253.384 375.569 258.696C373.713 261.64 372.049 262.344 370.705 262.344H368.977V269H372.369C374.033 269 377.105 268.744 379.345 266.12C384.273 260.296 386.129 250.44 386.897 242.44H396.177V269H403.153V235.848H371.729L374.545 242.44H379.921ZM424.5 255.816C425.844 255.24 427.188 255.048 428.66 255.048C431.924 255.048 435.188 255.944 438.644 255.944C439.988 255.944 441.268 255.752 442.548 255.112V269H449.076V235.848H442.548V248.392C441.204 249.032 439.796 249.224 438.388 249.224C435.06 249.224 431.156 248.264 428.404 248.264C427.06 248.264 425.716 248.52 424.5 249.096V235.848H417.972V269H424.5V255.816ZM483.481 257.992C476.633 257.992 472.153 259.784 470.041 260.872L477.913 245.704L484.377 257.992H483.481ZM474.521 239.24L458.649 269H465.561L465.753 268.616C466.841 267.208 475.353 264.008 483.545 264.008H487.513L490.137 269H497.369L479.449 235.08H472.345L474.521 239.24ZM531.247 252.232C528.367 250.568 524.719 250.312 520.047 250.312C517.231 250.312 513.967 249.992 513.967 246.408C513.967 242.76 517.231 242.44 520.047 242.44L531.247 242.504V252.232ZM522.223 257.16C526.895 257.352 528.431 257.8 531.247 259.272V269H537.967V235.848H517.679C511.023 235.848 506.287 240.328 506.287 246.6C506.287 251.848 509.167 255.624 514.735 256.84L513.391 258.952C511.599 261.832 510.255 262.28 509.039 262.28H505.647V269H508.527C512.623 269 515.631 268.68 518.447 263.752L522.223 257.16ZM311.434 329.168C311.434 336.336 305.098 340.304 298.826 340.304C292.49 340.304 286.09 336.912 286.09 329.424C286.09 321.936 292.362 318.544 298.762 318.544C305.034 318.544 311.434 321.744 311.434 329.168ZM318.346 329.104C318.346 317.584 308.746 311.76 298.762 311.76C288.842 311.76 279.178 318.032 279.178 329.296C279.178 340.496 288.65 347.024 298.698 347.024C308.746 347.024 318.346 340.368 318.346 329.104ZM361.607 346V312.848H330.503V346H337.031V319.44H355.079V346H361.607ZM382.764 319.44C382.188 325.776 381.74 330.384 378.412 335.696C376.556 338.64 374.892 339.344 373.548 339.344H371.82V346H375.212C376.876 346 379.948 345.744 382.188 343.12C387.116 337.296 388.972 327.44 389.74 319.44H399.02V346H405.996V312.848H374.572L377.388 319.44H382.764ZM440.45 334.992C433.602 334.992 429.122 336.784 427.01 337.872L434.882 322.704L441.346 334.992H440.45ZM431.49 316.24L415.618 346H422.53L422.722 345.616C423.81 344.208 432.322 341.008 440.514 341.008H444.482L447.106 346H454.338L436.418 312.08H429.314L431.49 316.24ZM490.549 319.44V312.848H459.445V319.44H471.477V346H478.069V319.44H490.549ZM519.887 334.992C513.039 334.992 508.559 336.784 506.447 337.872L514.319 322.704L520.783 334.992H519.887ZM510.927 316.24L495.055 346H501.967L502.159 345.616C503.247 344.208 511.759 341.008 519.951 341.008H523.919L526.543 346H533.775L515.855 312.08H508.751L510.927 316.24Z" fill="white"/>
<path d="M687.901 286.626C687.901 229.501 670.832 173.679 638.883 126.324C606.935 78.9683 561.565 42.2394 508.596 20.8503C455.626 -0.538823 397.474 -5.61236 341.601 6.28072C285.728 18.1738 234.683 46.4909 195.017 87.5984C155.351 128.706 128.872 180.728 118.98 236.99C109.087 293.252 116.232 351.186 139.497 403.359C162.762 455.531 201.086 499.562 249.551 529.801C298.016 560.04 354.411 575.107 411.499 573.069L411.132 562.781C356.094 564.746 301.724 550.22 255 521.067C208.276 491.914 171.328 449.465 148.899 399.166C126.469 348.867 119.581 293.014 129.119 238.773C138.656 184.532 164.183 134.378 202.425 94.7465C240.666 55.1154 289.878 27.8153 343.744 16.3494C397.611 4.88346 453.674 9.77478 504.741 30.3957C555.808 51.0166 599.549 86.4263 630.349 132.081C661.15 177.736 677.607 231.553 677.607 286.626L687.901 286.626Z" fill="url(#paint0_linear)"/>
<path d="M418.677 1115.16C366.515 1114.65 315.2 1128.37 270.254 1154.84C225.308 1181.32 188.431 1219.55 163.591 1265.42C138.752 1311.29 126.89 1363.06 129.282 1415.17C131.674 1467.28 148.229 1517.75 177.167 1561.16C206.104 1604.56 246.328 1639.25 293.511 1661.49C340.694 1683.74 393.05 1692.7 444.945 1687.41C496.84 1682.12 546.31 1662.78 588.033 1631.47C629.756 1600.16 662.152 1558.06 681.735 1509.71L672.185 1505.85C653.306 1552.46 622.073 1593.04 581.849 1623.23C541.625 1653.41 493.931 1672.06 443.9 1677.16C393.869 1682.26 343.393 1673.62 297.905 1652.17C252.417 1630.73 213.637 1597.28 185.739 1555.44C157.841 1513.6 141.88 1464.94 139.574 1414.7C137.268 1364.46 148.704 1314.55 172.651 1270.32C196.599 1226.1 232.151 1189.24 275.483 1163.72C318.815 1138.2 368.287 1124.97 418.575 1125.47L418.677 1115.16Z" fill="url(#paint1_linear)"/>
<path d="M415.708 1125.7C462.941 1128.31 510.01 1118.56 552.745 1097.33L548.324 1087.45C507.124 1107.92 461.745 1117.32 416.209 1114.8L415.708 1125.7Z" fill="#6C0FEE"/>
<path d="M601.991 1058.95C643.724 1019.72 672.757 968.89 685.35 913.012C697.943 857.134 693.519 798.765 672.649 745.423C651.779 692.081 615.418 646.207 568.249 613.711C521.08 581.214 465.262 563.583 407.985 563.087L407.896 573.389C463.116 573.868 516.929 590.866 562.404 622.195C607.879 653.525 642.934 697.75 663.055 749.177C683.175 800.603 687.44 856.876 675.299 910.747C663.158 964.618 635.169 1013.62 594.934 1051.45L601.991 1058.95Z" fill="url(#paint2_linear)"/>
<g style="mix-blend-mode:screen">
<circle cx="404.896" cy="850.223" r="244.093" transform="rotate(90 404.896 850.223)" fill="black"/>
<circle cx="404.896" cy="850.223" r="244.093" transform="rotate(90 404.896 850.223)" stroke="url(#paint3_linear)" stroke-width="3"/>
</g>
<path opacity="0.1" d="M323.89 742.656C282.994 742.656 248.722 768 248.722 812.064C248.722 834.528 248.722 860.16 248.722 882.624C248.722 926.688 282.994 952.032 323.89 952.032C365.65 952.032 399.634 926.688 399.634 882.624C399.634 860.16 399.634 834.528 399.634 812.064C399.634 768 365.65 742.656 323.89 742.656ZM323.89 906.24C309.202 906.24 297.682 897.888 297.682 881.472C297.682 859.872 297.682 834.816 297.682 812.928C297.682 797.088 309.202 788.736 323.89 788.736C339.154 788.736 350.962 797.088 350.962 812.928C350.962 834.816 350.962 859.872 350.962 881.472C350.962 897.888 339.154 906.24 323.89 906.24ZM505.24 829.344L429.496 940.224V948H571.192C571.192 930.432 571.192 919.488 571.192 901.92H511.288L551.896 845.472C581.848 799.104 556.504 741.792 498.616 743.232C462.904 744.096 433.528 765.408 434.104 808.896C450.808 808.896 460.888 808.896 477.88 808.896C477.88 794.784 486.232 789.312 497.752 789.312C523.096 789.312 515.32 815.808 505.24 829.344Z" fill="#A266FF"/>
<path d="M266.638 799.192V815.944C263.134 817.192 260.494 818.104 257.71 818.104C252.094 818.104 248.734 816.472 248.734 811.336C248.734 807.352 249.07 803.176 249.694 799.192H244.462C243.838 802.312 243.502 808.12 243.502 809.896C243.502 819.88 248.35 823.24 257.518 823.24C261.694 823.24 264.238 822.376 266.638 821.224V835H271.87V799.192H266.638ZM298.15 826.744C293.014 826.744 289.654 828.088 288.07 828.904L293.974 817.528L298.822 826.744H298.15ZM291.43 812.68L279.526 835H284.71L284.854 834.712C285.67 833.656 292.054 831.256 298.198 831.256H301.174L303.142 835H308.566L295.126 809.56H289.798L291.43 812.68ZM335.821 828.088C333.901 829.816 331.165 830.776 328.573 830.776C323.821 830.776 319.069 828.184 319.069 822.568C319.069 816.952 323.725 814.312 328.525 814.312C330.877 814.312 332.989 814.792 334.861 816.088L338.173 812.248C335.437 810.184 332.173 809.32 328.525 809.32C321.085 809.32 313.837 814.024 313.837 822.472C313.837 830.872 320.941 835.768 328.477 835.768C332.269 835.768 335.965 834.568 338.701 832.216L335.821 828.088ZM366.85 815.08V810.136H343.522V815.08H352.546V835H357.49V815.08H366.85ZM379.445 827.992V810.136H374.549V835H379.445L393.941 817.048V835H398.837V810.136H393.941L379.445 827.992ZM424.954 810.136V820.888C422.122 821.752 420.97 822.04 418.714 822.04C414.202 822.04 412.378 820.936 412.378 817.336C412.378 814.936 412.618 812.632 413.338 810.136H408.442C407.674 812.872 407.482 815.752 407.482 818.632C407.482 824.824 411.754 826.936 418.57 826.936C421.162 826.936 422.986 826.648 424.954 825.88V835H429.85V810.136H424.954ZM446.289 825.112C447.297 824.68 448.305 824.536 449.409 824.536C451.857 824.536 454.305 825.208 456.897 825.208C457.905 825.208 458.865 825.064 459.825 824.584V835H464.721V810.136H459.825V819.544C458.817 820.024 457.761 820.168 456.705 820.168C454.209 820.168 451.281 819.448 449.217 819.448C448.209 819.448 447.201 819.64 446.289 820.072V810.136H441.393V835H446.289V825.112ZM490.525 826.744C485.389 826.744 482.029 828.088 480.445 828.904L486.349 817.528L491.197 826.744H490.525ZM483.805 812.68L471.901 835H477.085L477.229 834.712C478.045 833.656 484.429 831.256 490.573 831.256H493.549L495.517 835H500.941L487.501 809.56H482.173L483.805 812.68ZM526.349 822.424C524.189 821.176 521.453 820.984 517.949 820.984C515.837 820.984 513.389 820.744 513.389 818.056C513.389 815.32 515.837 815.08 517.949 815.08L526.349 815.128V822.424ZM519.581 826.12C523.085 826.264 524.237 826.6 526.349 827.704V835H531.389V810.136H516.173C511.181 810.136 507.629 813.496 507.629 818.2C507.629 822.136 509.789 824.968 513.965 825.88L512.957 827.464C511.613 829.624 510.605 829.96 509.693 829.96H507.149V835H509.309C512.381 835 514.637 834.76 516.749 831.064L519.581 826.12ZM560.899 815.08H571.219C572.707 815.08 573.715 815.8 573.715 817.144C573.715 818.584 572.947 819.304 571.219 819.304H568.675C565.795 819.304 563.059 819.496 560.899 820.744V815.08ZM560.899 825.784C563.059 824.632 564.115 824.344 568.675 824.344H571.219C573.955 824.344 575.107 825.304 575.107 827.128C575.107 829.528 573.235 830.008 571.219 830.008H560.899V825.784ZM580.051 827.224C580.051 824.776 578.995 822.52 577.123 821.416C578.323 820.312 578.755 818.776 578.755 817.144C578.755 812.968 575.299 810.136 571.219 810.136H555.955V835H571.219C576.691 835 580.051 832.12 580.051 827.224ZM271.894 865.736C274.342 863.192 278.278 861.416 281.35 861.416C288.07 861.416 288.262 866.216 288.262 867.224C288.262 868.376 287.974 871.784 281.59 875.528C274.15 879.944 270.31 881.528 267.91 887.768V893H293.782V887.768H273.622C275.59 884.456 278.422 883.352 284.278 879.944C293.014 874.808 293.446 869.096 293.446 867.224C293.446 865.256 293.062 856.136 281.35 856.136C276.79 856.136 271.654 858.872 268.534 861.8L271.894 865.736ZM323.313 877.592V873.128H300.513V877.592H323.313ZM351.908 881.672C351.908 885.56 348.116 888.584 343.46 888.584C339.044 888.584 335.3 885.656 335.3 881.672C335.3 877.448 338.132 874.136 343.46 874.136C348.98 874.136 351.908 877.304 351.908 881.672ZM355.172 858.872C352.244 857.144 348.836 856.136 345.188 856.136C334.004 856.136 329.54 865.4 329.54 876.152C329.54 879.464 329.54 883.64 331.22 886.664C333.428 890.648 337.748 893.816 343.46 893.816C350.996 893.816 357.14 888.44 357.14 881.672C357.14 874.184 351.62 869 343.46 869C339.812 869 336.98 870.584 334.868 872.648C335.492 865.64 339.428 861.416 345.188 861.416C347.78 861.416 350.42 862.232 352.532 863.432L355.172 858.872ZM393.875 868.136V878.888C391.043 879.752 389.891 880.04 387.635 880.04C383.123 880.04 381.299 878.936 381.299 875.336C381.299 872.936 381.539 870.632 382.259 868.136H377.363C376.595 870.872 376.403 873.752 376.403 876.632C376.403 882.824 380.675 884.936 387.491 884.936C390.083 884.936 391.907 884.648 393.875 883.88V893H398.771V868.136H393.875ZM424.619 884.744C419.483 884.744 416.123 886.088 414.539 886.904L420.443 875.528L425.291 884.744H424.619ZM417.899 870.68L405.995 893H411.179L411.323 892.712C412.139 891.656 418.523 889.256 424.667 889.256H427.643L429.611 893H435.035L421.595 867.56H416.267L417.899 870.68ZM462.289 886.088C460.369 887.816 457.633 888.776 455.041 888.776C450.289 888.776 445.537 886.184 445.537 880.568C445.537 874.952 450.193 872.312 454.993 872.312C457.345 872.312 459.457 872.792 461.329 874.088L464.641 870.248C461.905 868.184 458.641 867.32 454.993 867.32C447.553 867.32 440.305 872.024 440.305 880.472C440.305 888.872 447.409 893.768 454.945 893.768C458.737 893.768 462.433 892.568 465.169 890.216L462.289 886.088ZM493.318 873.08V868.136H469.99V873.08H479.014V893H483.958V873.08H493.318ZM505.914 884.072C508.074 882.92 509.13 882.632 513.69 882.632H517.338V877.688H513.69C510.81 877.688 508.074 877.88 505.914 879.128V873.08H520.602V868.136H501.018V893H521.514V888.008H505.914V884.072ZM550.269 868.136H555.165V893H550.269V875.048L535.773 893H530.877V868.136H535.773V885.992L550.269 868.136ZM543.501 862.232C540.381 862.232 539.805 860.168 539.805 858.632H534.285C534.621 861.608 536.637 865.592 543.501 865.592C550.365 865.592 552.381 861.608 552.717 858.632H547.197C547.197 860.168 546.621 862.232 543.501 862.232Z" fill="white"/>
<g style="mix-blend-mode:screen">
<circle cx="414.55" cy="1402.96" r="244.093" transform="rotate(90 414.55 1402.96)" fill="black"/>
<circle cx="414.55" cy="1402.96" r="244.093" transform="rotate(90 414.55 1402.96)" stroke="url(#paint4_linear)" stroke-width="3"/>
</g>
<path opacity="0.1" d="M332.43 1299.66C291.534 1299.66 257.262 1325 257.262 1369.06C257.262 1391.53 257.262 1417.16 257.262 1439.62C257.262 1483.69 291.534 1509.03 332.43 1509.03C374.19 1509.03 408.174 1483.69 408.174 1439.62C408.174 1417.16 408.174 1391.53 408.174 1369.06C408.174 1325 374.19 1299.66 332.43 1299.66ZM332.43 1463.24C317.742 1463.24 306.222 1454.89 306.222 1438.47C306.222 1416.87 306.222 1391.82 306.222 1369.93C306.222 1354.09 317.742 1345.74 332.43 1345.74C347.694 1345.74 359.502 1354.09 359.502 1369.93C359.502 1391.82 359.502 1416.87 359.502 1438.47C359.502 1454.89 347.694 1463.24 332.43 1463.24ZM442.644 1443.37C442.644 1469.29 456.756 1489.74 475.764 1500.39C485.556 1505.86 496.5 1509.03 511.764 1509.03C558.42 1509.03 582.9 1473.03 582.612 1438.76C582.612 1412.84 573.396 1386.92 541.428 1378.86L578.58 1310.89V1303.4H450.42V1349.19H508.596L481.812 1405.06V1411.98C503.7 1411.11 532.5 1409.96 532.788 1439.05C532.5 1452.58 524.724 1463.24 510.612 1463.24C496.788 1463.24 488.148 1456.62 487.86 1443.37C473.172 1443.37 457.62 1443.37 442.644 1443.37Z" fill="#A266FF"/>
<path d="M242.698 1375.67C239.562 1375.67 236.49 1375.93 233.61 1377.59V1362.3H251.146C255.754 1362.3 258.186 1364.09 258.186 1368.89C258.186 1373.5 255.69 1375.67 251.146 1375.67H242.698ZM233.61 1403V1384.63C236.49 1383.1 239.626 1382.71 242.698 1382.71H251.146C259.594 1382.71 265.098 1377.34 265.098 1368.89C265.098 1360.38 259.594 1355.26 251.146 1355.26H226.634V1403H233.61ZM289.346 1391.99C282.498 1391.99 278.018 1393.78 275.906 1394.87L283.778 1379.7L290.242 1391.99H289.346ZM280.386 1373.24L264.514 1403H271.426L271.618 1402.62C272.706 1401.21 281.218 1398.01 289.41 1398.01H293.378L296.002 1403H303.234L285.314 1369.08H278.21L280.386 1373.24ZM339.573 1393.78C337.013 1396.09 333.365 1397.37 329.909 1397.37C323.573 1397.37 317.237 1393.91 317.237 1386.42C317.237 1378.94 323.445 1375.42 329.845 1375.42C332.981 1375.42 335.797 1376.06 338.293 1377.78L342.709 1372.66C339.061 1369.91 334.709 1368.76 329.845 1368.76C319.925 1368.76 310.261 1375.03 310.261 1386.3C310.261 1397.5 319.733 1404.02 329.781 1404.02C334.837 1404.02 339.765 1402.42 343.413 1399.29L339.573 1393.78ZM381.073 1393.78C378.513 1396.09 374.865 1397.37 371.409 1397.37C365.073 1397.37 358.737 1393.91 358.737 1386.42C358.737 1378.94 364.945 1375.42 371.345 1375.42C374.481 1375.42 377.297 1376.06 379.793 1377.78L384.209 1372.66C380.561 1369.91 376.209 1368.76 371.345 1368.76C361.425 1368.76 351.761 1375.03 351.761 1386.3C351.761 1397.5 361.233 1404.02 371.281 1404.02C376.337 1404.02 381.265 1402.42 384.913 1399.29L381.073 1393.78ZM402.989 1376.44H416.365C419.053 1376.44 421.613 1377.08 421.613 1380.28C421.613 1383.8 419.501 1384.44 416.365 1384.44H413.421C409.581 1384.44 405.869 1384.7 402.989 1386.36V1376.44ZM402.989 1403V1392.95C405.869 1391.42 407.341 1391.03 413.421 1391.03H416.365C423.789 1391.03 428.333 1386.87 428.333 1380.34C428.333 1373.94 423.917 1369.85 417.517 1369.85H396.461V1403H402.989ZM468.892 1386.17C468.892 1393.34 462.556 1397.3 456.284 1397.3C449.948 1397.3 443.548 1393.91 443.548 1386.42C443.548 1378.94 449.82 1375.54 456.22 1375.54C462.492 1375.54 468.892 1378.74 468.892 1386.17ZM475.804 1386.1C475.804 1374.58 466.204 1368.76 456.22 1368.76C446.3 1368.76 436.636 1375.03 436.636 1386.3C436.636 1397.5 446.108 1404.02 456.156 1404.02C466.204 1404.02 475.804 1397.37 475.804 1386.1ZM507.417 1369.85V1384.18C503.641 1385.34 502.105 1385.72 499.097 1385.72C493.081 1385.72 490.649 1384.25 490.649 1379.45C490.649 1376.25 490.969 1373.18 491.929 1369.85H485.401C484.377 1373.5 484.121 1377.34 484.121 1381.18C484.121 1389.43 489.817 1392.25 498.905 1392.25C502.361 1392.25 504.793 1391.86 507.417 1390.84V1403H513.945V1369.85H507.417ZM536.312 1390.26H539.128C540.92 1390.26 542.776 1390.07 544.504 1389.43L550.328 1397.75C553.848 1402.81 556.792 1403 560.248 1403H563.128V1396.34H560.824C559.16 1396.34 556.728 1395.7 554.744 1392.95L549.176 1385.4L561.336 1369.85H552.888L543.544 1381.94C542.264 1382.97 540.792 1383.29 538.488 1383.29H536.312V1369.85H529.336V1403H536.312V1390.26ZM594.971 1391.99C588.123 1391.99 583.643 1393.78 581.531 1394.87L589.403 1379.7L595.867 1391.99H594.971ZM586.011 1373.24L570.139 1403H577.051L577.243 1402.62C578.331 1401.21 586.843 1398.01 595.035 1398.01H599.003L601.627 1403H608.859L590.939 1369.08H583.835L586.011 1373.24ZM326.772 1473.34V1463.87C329.652 1465.54 333.3 1465.79 337.14 1465.79H340.532C343.156 1465.79 345.716 1466.37 345.716 1469.5C345.716 1472.7 343.22 1473.34 340.532 1473.34H326.772ZM326.772 1453.44H345.716V1446.85H320.18V1480H340.532C347.124 1480 352.308 1476.61 352.308 1469.63C352.308 1462.72 347.124 1459.07 340.532 1459.07H337.14C331.06 1459.07 329.652 1458.69 326.772 1457.15V1453.44ZM370.333 1468.1C373.213 1466.56 374.621 1466.18 380.701 1466.18H385.565V1459.58H380.701C376.861 1459.58 373.213 1459.84 370.333 1461.5V1453.44H389.917V1446.85H363.805V1480H391.133V1473.34H370.333V1468.1ZM406.306 1454.78C409.378 1453.06 413.41 1452.42 415.138 1452.42C419.618 1452.42 422.306 1453.44 422.306 1455.94C422.306 1457.47 421.282 1459.07 418.978 1459.07H412.002V1465.66H418.978C421.602 1465.66 424.162 1466.37 424.162 1469.5C424.162 1473.34 420.258 1474.37 415.138 1474.37C411.17 1474.37 406.69 1473.15 402.914 1469.44L399.138 1475.14C402.786 1478.78 409.442 1481.09 415.138 1481.09C422.754 1481.09 430.754 1478.27 430.754 1469.63C430.754 1466.62 429.474 1463.36 426.85 1461.89C428.45 1460.42 429.09 1457.86 429.09 1455.94C429.09 1449.22 424.034 1445.76 415.138 1445.76C412.13 1445.76 407.01 1446.4 402.594 1449.09L406.306 1454.78ZM509.585 1469.82C509.585 1474.43 505.425 1477.12 501.265 1477.12C497.105 1477.12 492.881 1474.88 492.881 1469.95C492.881 1465.02 497.041 1462.72 501.265 1462.72C505.361 1462.72 509.585 1464.83 509.585 1469.82ZM515.281 1469.76C515.281 1461.38 508.369 1457.22 501.265 1457.22C494.097 1457.22 487.185 1461.76 487.185 1469.89C487.185 1477.89 493.905 1482.56 501.137 1482.56C508.369 1482.56 515.281 1477.82 515.281 1469.76ZM478.225 1447.1C478.225 1451.71 474.065 1454.4 469.905 1454.4C465.745 1454.4 461.521 1452.16 461.521 1447.23C461.521 1442.3 465.681 1440 469.905 1440C474.001 1440 478.225 1442.11 478.225 1447.1ZM483.921 1447.04C483.921 1438.66 477.009 1434.5 469.905 1434.5C462.737 1434.5 455.825 1439.04 455.825 1447.17C455.825 1455.17 462.545 1459.9 469.777 1459.9C477.009 1459.9 483.921 1455.1 483.921 1447.04ZM506.769 1434.05H499.281L464.657 1482.5H472.081L506.769 1434.05Z" fill="white"/>
<path d="M595.262 1060.17C595.406 1060.99 596.184 1061.53 597 1061.39L610.294 1059.04C611.11 1058.9 611.655 1058.12 611.511 1057.31C611.367 1056.49 610.589 1055.95 609.773 1056.09L597.956 1058.17L595.872 1046.36C595.728 1045.54 594.95 1045 594.134 1045.14C593.318 1045.28 592.774 1046.06 592.918 1046.88L595.262 1060.17ZM596.438 1057.73L595.51 1059.05L597.968 1060.77L598.896 1059.45L596.438 1057.73Z" fill="#6600E7"/>
<path d="M678.905 1502.33C679.676 1502.03 680.547 1502.41 680.85 1503.18L685.798 1515.74C686.102 1516.51 685.723 1517.38 684.952 1517.68C684.181 1517.99 683.31 1517.61 683.007 1516.84L678.609 1505.67L667.444 1510.07C666.673 1510.37 665.802 1510 665.498 1509.22C665.195 1508.45 665.573 1507.58 666.344 1507.28L678.905 1502.33ZM677.434 1504.61L678.079 1503.13L680.83 1504.33L680.185 1505.81L677.434 1504.61Z" fill="#FF166A"/>
<circle cx="683.074" cy="287.229" r="18.1027" transform="rotate(90 683.074 287.229)" fill="#6E01E0"/>
<circle cx="550.321" cy="1092.19" r="18.1027" transform="rotate(90 550.321 1092.19)" fill="#6C0FEE"/>
<defs>
<linearGradient id="paint0_linear" x1="408.516" y1="564.2" x2="631.783" y2="185.251" gradientUnits="userSpaceOnUse">
<stop stop-color="#FF166A"/>
<stop offset="1" stop-color="#6300EA"/>
</linearGradient>
<linearGradient id="paint1_linear" x1="292.585" y1="1146.93" x2="693.946" y2="1382.4" gradientUnits="userSpaceOnUse">
<stop offset="0.276042" stop-color="#6C0FEE"/>
<stop offset="1" stop-color="#FF166A"/>
</linearGradient>
<linearGradient id="paint2_linear" x1="411.808" y1="569.697" x2="591.202" y2="1061.82" gradientUnits="userSpaceOnUse">
<stop stop-color="#FF166A"/>
<stop offset="1" stop-color="#6200EB"/>
</linearGradient>
<linearGradient id="paint3_linear" x1="650.489" y1="821.862" x2="171.372" y2="837.551" gradientUnits="userSpaceOnUse">
<stop stop-color="#6200EB"/>
<stop offset="1" stop-color="#FF166A"/>
</linearGradient>
<linearGradient id="paint4_linear" x1="191.887" y1="1369.17" x2="668.591" y2="1388.48" gradientUnits="userSpaceOnUse">
<stop stop-color="#6200EB"/>
<stop offset="0.939569" stop-color="#FF166A"/>
</linearGradient>
</defs>
</svg>
