<svg width="70" height="70" viewBox="0 0 70 70" fill="none" xmlns="http://www.w3.org/2000/svg">
<path d="M34.5852 16.8442C24.7626 16.8442 16.8352 24.7717 16.8352 34.5945C16.8352 44.4174 24.7626 52.3449 34.5852 52.3449C44.4079 52.3449 52.3352 44.4174 52.3352 34.5945C52.3352 24.7717 44.4079 16.8442 34.5852 16.8442ZM34.5852 46.131C28.233 46.131 23.049 40.9469 23.049 34.5945C23.049 28.2421 28.233 23.0581 34.5852 23.0581C40.9375 23.0581 46.1214 28.2421 46.1214 34.5945C46.1214 40.9469 40.9375 46.131 34.5852 46.131ZM53.0622 11.9804C50.7688 11.9804 48.9168 13.8324 48.9168 16.1259C48.9168 18.4193 50.7688 20.2714 53.0622 20.2714C55.3556 20.2714 57.2076 18.428 57.2076 16.1259C57.2083 15.5813 57.1015 15.0419 56.8935 14.5386C56.6854 14.0354 56.38 13.5781 55.995 13.193C55.6099 12.808 55.1526 12.5026 54.6494 12.2945C54.1461 12.0865 53.6068 11.9797 53.0622 11.9804ZM69.1852 34.5945C69.1852 29.8173 69.2285 25.0833 68.9602 20.3146C68.6919 14.7758 67.4284 9.86003 63.3781 5.80973C59.3193 1.75078 54.4123 0.495879 48.8735 0.227591C44.0963 -0.0406983 39.3624 0.00257422 34.5939 0.00257422C29.8167 0.00257422 25.0828 -0.0406983 20.3143 0.227591C14.7755 0.495879 9.85984 1.75943 5.80962 5.80973C1.75075 9.86868 0.49587 14.7758 0.227586 20.3146C-0.0406975 25.0919 0.00257418 29.8259 0.00257418 34.5945C0.00257418 39.3631 -0.0406975 44.1058 0.227586 48.8744C0.49587 54.4133 1.7594 59.329 5.80962 63.3793C9.8685 67.4383 14.7755 68.6932 20.3143 68.9615C25.0914 69.2298 29.8254 69.1865 34.5939 69.1865C39.3711 69.1865 44.105 69.2298 48.8735 68.9615C54.4123 68.6932 59.3279 67.4296 63.3781 63.3793C67.437 59.3204 68.6919 54.4133 68.9602 48.8744C69.2371 44.1058 69.1852 39.3718 69.1852 34.5945ZM61.5694 55.0018C60.9376 56.5769 60.176 57.7539 58.9558 58.9655C57.7355 60.1858 56.5672 60.9474 54.9921 61.5792C50.4399 63.388 39.6307 62.9812 34.5852 62.9812C29.5398 62.9812 18.7219 63.388 14.1697 61.5879C12.5946 60.9561 11.4176 60.1945 10.206 58.9742C8.98576 57.7539 8.22418 56.5856 7.59241 55.0104C5.79231 50.4495 6.19907 39.6401 6.19907 34.5945C6.19907 29.549 5.79231 18.7309 7.59241 14.1786C8.22418 12.6035 8.98576 11.4265 10.206 10.2149C11.4263 9.00323 12.5946 8.23298 14.1697 7.60121C18.7219 5.80108 29.5398 6.20784 34.5852 6.20784C39.6307 6.20784 50.4486 5.80108 55.0008 7.60121C56.5759 8.23298 57.7528 8.99458 58.9644 10.2149C60.1847 11.4351 60.9463 12.6035 61.578 14.1786C63.3781 18.7309 62.9714 29.549 62.9714 34.5945C62.9714 39.6401 63.3781 50.4495 61.5694 55.0018Z" fill="white"/>
</svg>
