<svg width="67" height="67" viewBox="0 0 67 67" fill="none" xmlns="http://www.w3.org/2000/svg">
<path fill-rule="evenodd" clip-rule="evenodd" d="M56.8346 9.66934C53.766 6.59518 50.1149 4.1576 46.093 2.49783C42.071 0.838063 37.7581 -0.0109077 33.4041 0.000105796C15.1468 0.000105796 0.284118 14.7886 0.276738 32.9666C0.276738 38.7762 1.80064 44.4463 4.69716 49.448L0 66.5279L17.5599 61.9412C22.4172 64.5728 27.859 65.9527 33.3894 65.9551H33.4041C51.6578 65.9551 66.5204 51.1666 66.5278 32.9886C66.5403 28.657 65.6902 24.366 64.0264 20.3634C62.3626 16.3608 59.9183 12.7261 56.8346 9.66934ZM33.4041 60.3915H33.393C28.4616 60.392 23.621 59.0715 19.379 56.5686L18.3754 55.9737L7.95529 58.6949L10.7337 48.585L10.0806 47.5494C7.32355 43.1809 5.86402 38.1254 5.87053 32.9666C5.87791 17.8586 18.2278 5.56735 33.4152 5.56735C37.0322 5.55935 40.6148 6.26539 43.9558 7.64461C47.2967 9.02382 50.3297 11.0488 52.8791 13.6024C55.4421 16.1438 57.4736 19.1656 58.8562 22.4931C60.2388 25.8206 60.945 29.3878 60.934 32.9886C60.9266 48.0965 48.5767 60.3915 33.4041 60.3915ZM48.5066 39.8669C47.6764 39.4519 43.6102 37.4615 42.8501 37.1861C42.0937 36.9106 41.5439 36.7748 40.9904 37.5974C40.437 38.42 38.8503 40.2745 38.3669 40.8253C37.8836 41.3762 37.4002 41.4423 36.5737 41.031C35.7472 40.6197 33.0794 39.7494 29.9172 36.9437C27.4561 34.7587 25.7957 32.0632 25.3123 31.2369C24.8289 30.4106 25.2606 29.9663 25.6776 29.555C26.0503 29.1877 26.5041 28.5928 26.9174 28.1118C27.3306 27.6307 27.4672 27.2892 27.7439 26.7383C28.0206 26.1875 27.8841 25.7064 27.6738 25.2951C27.4672 24.8801 25.8104 20.8259 25.1204 19.177C24.4526 17.5795 23.7699 17.7925 23.2607 17.7705C22.7334 17.749 22.2056 17.7392 21.6778 17.7411C21.2581 17.7518 20.8451 17.8486 20.4648 18.0255C20.0845 18.2025 19.745 18.4557 19.4676 18.7694C18.7075 19.5956 16.5711 21.586 16.5711 25.6403C16.5711 29.6945 19.5377 33.6129 19.951 34.1637C20.3642 34.7146 25.7883 43.0324 34.0904 46.6019C36.0682 47.4502 37.6105 47.957 38.8097 48.3389C40.7912 48.9669 42.5955 48.8751 44.0235 48.6658C45.6138 48.4307 48.9199 46.6754 49.6099 44.7511C50.2999 42.8268 50.2999 41.1779 50.0933 40.8327C49.8866 40.4875 49.3295 40.2782 48.5066 39.8669Z" fill="white"/>
</svg>
